<svg xmlns="http://www.w3.org/2000/svg" viewBox="0 0 120 120"><path fill="#1e1e1f" d="M26 0h68a25.948 25.948 0 0 1 26 26v68a25.948 25.948 0 0 1-26 26H26A25.948 25.948 0 0 1 0 94V26A26.012 26.012 0 0 1 26 0Z"/><path fill="#fff" fill-rule="evenodd" d="M24 30h72a6.018 6.018 0 0 1 6 6v34a6.018 6.018 0 0 1-6 6H24a6.018 6.018 0 0 1-6-6V36a6.018 6.018 0 0 1 6-6Z"/><path fill="#d9d6cc" fill-rule="evenodd" d="M22 26h76a8.024 8.024 0 0 1 8 8v52a8.024 8.024 0 0 1-8 8H22a8.024 8.024 0 0 1-8-8V34a8.024 8.024 0 0 1 8-8Z"/><path fill="#3b99c9" fill-rule="evenodd" d="M24 30h72a6.018 6.018 0 0 1 6 6v34a6.018 6.018 0 0 1-6 6H24a6.018 6.018 0 0 1-6-6V36a6.018 6.018 0 0 1 6-6Z"/><g fill-rule="evenodd"><path d="M24 37h72a6.018 6.018 0 0 1 6 6v12a6.018 6.018 0 0 1-6 6H24a6.018 6.018 0 0 1-6-6V43a6.018 6.018 0 0 1 6-6Z"/><path fill="#ffb003" d="M24 37h72a6.018 6.018 0 0 1 6 6v12a6.018 6.018 0 0 1-6 6H24a6.018 6.018 0 0 1-6-6V43a6.018 6.018 0 0 1 6-6Z"/></g><g fill-rule="evenodd"><path d="M24 44h72a6.018 6.018 0 0 1 6 6v12a6.018 6.018 0 0 1-6 6H24a6.018 6.018 0 0 1-6-6V50a6.018 6.018 0 0 1 6-6Z"/><path fill="#50be3d" d="M24 44h72a6.018 6.018 0 0 1 6 6v12a6.018 6.018 0 0 1-6 6H24a6.018 6.018 0 0 1-6-6V50a6.018 6.018 0 0 1 6-6Z"/></g><g fill-rule="evenodd"><path d="M24 51h72a6.018 6.018 0 0 1 6 6v12a6.018 6.018 0 0 1-6 6H24a6.018 6.018 0 0 1-6-6V57a6.018 6.018 0 0 1 6-6Z"/><path fill="#f26d5f" d="M24 51h72a6.018 6.018 0 0 1 6 6v12a6.018 6.018 0 0 1-6 6H24a6.018 6.018 0 0 1-6-6V57a6.018 6.018 0 0 1 6-6Z"/></g><path fill-rule="evenodd" d="M14 58h92v28a8.024 8.024 0 0 1-8 8H22a8.024 8.024 0 0 1-8-8Zm27 0c9 0 10 11.5 19 11.5S70 58 79 58Z"/><path fill="#d9d6cc" fill-rule="evenodd" d="M14 58h92v28a8.024 8.024 0 0 1-8 8H22a8.024 8.024 0 0 1-8-8Zm27 0c9 0 10 11.5 19 11.5S70 58 79 58Z"/></svg>