<svg xmlns="http://www.w3.org/2000/svg" width="90" height="90" viewBox="0 0 90 90"><path fill="#fff" d="M58.6 0c9 0 13.6 0 18.4 1.5 5.3 1.9 9.5 6.1 11.4 11.4C90 17.8 90 22.3 90 31.4v27.2c0 9 0 13.6-1.5 18.4-1.9 5.3-6.1 9.5-11.4 11.4C72.2 90 67.7 90 58.6 90H31.4c-9 0-13.6 0-18.4-1.5-5.3-2-9.5-6.2-11.5-11.5C0 72.2 0 67.7 0 58.6V31.4c0-9 0-13.6 1.5-18.4C3.5 7.7 7.7 3.5 13 1.5 17.8 0 22.3 0 31.4 0Z"/><path fill="#ff7e7b" d="M30.8 33c.9 0 1.7.1 2.5.3-.2-.8-.3-1.7-.3-2.5V18c0-.6.1-1.1.1-1.6-4.7-3.5-11.4-3.1-15.6 1.1-4.2 4.2-4.6 10.9-1.1 15.6.5-.1 1.1-.1 1.6-.1Z"/><path fill="#ff6f3f" d="M44.2 42.7c-.6 0-1.1-.1-1.7-.2.1.5.2 1.1.2 1.7.3-.2.5-.4.8-.7.2-.3.4-.5.7-.8z"/><path fill="#ffac00" d="M43.5 26.5c.6.6 1.2 1.3 1.6 2 .5-.7 1-1.4 1.6-2l9-9c.4-.4.7-.7 1.1-1C56.2 10.6 51.1 6 45 6c-6.1 0-11.1 4.5-11.9 10.4.5.3.9.7 1.3 1.1z"/><path fill="#ffc300" d="M46 42.7c-.3-.4-.7-.8-.9-1.3-.3.4-.6.9-.9 1.3h.8c.3.1.7 0 1 0z"/><path fill="#ff3400" d="M33 30.8c0 .9.1 1.7.3 2.5 4.6 1 8.2 4.6 9.2 9.2.5.1 1.1.2 1.7.2.3-.4.7-.8.9-1.3-2.5-3.9-2.5-9 0-12.9-.5-.7-1-1.4-1.6-2l-9-9c-.4-.4-.9-.8-1.3-1.1-.1.5-.2 1-.2 1.6Z"/><path fill="#f0ea0d" d="M57 30.8c0 .9-.1 1.7-.3 2.5.8-.2 1.7-.3 2.5-.3H72c.6 0 1.2.1 1.8.2 3.5-4.7 3.2-11.4-1.1-15.7-4.3-4.3-11.1-4.6-15.8-1 .1.5.1 1 .1 1.5Z"/><path fill="#dae411" d="M47.3 44c0-.5.1-1 .2-1.5-.5.1-1 .2-1.5.2.2.3.5.5.7.8.2.2.4.3.6.5z"/><path fill="#eaa200" d="M46.7 26.5c-.6.6-1.2 1.3-1.6 2 2.5 3.9 2.5 9 0 12.9.3.4.6.9.9 1.3.5 0 1-.1 1.5-.2 1-4.6 4.6-8.2 9.2-9.2.2-.8.3-1.7.3-2.5V18c0-.5 0-1-.1-1.5-.4.3-.8.6-1.1 1z"/><path fill="#e63300" d="M45.1 28.5c-2.5 3.9-2.5 9 0 12.9 2.5-3.9 2.5-8.9 0-12.9z"/><path fill="#83d567" d="M47.2 45c0 .4 0 .8.1 1.2.5-.4 1-.8 1.5-1.1-.5-.3-1-.7-1.5-1.1 0 .3-.1.7-.1 1z"/><path fill="#a2dd50" d="M84 45c0-6-4.4-11-10.2-11.8-.3.5-.7.9-1.1 1.3l-9 9c-.6.6-1.3 1.2-2 1.6.7.5 1.4 1 2 1.6l9 9c.4.4.7.7 1 1.1C79.5 56 84 51.1 84 45Z"/><path fill="#8bc100" d="M59.2 33c-.9 0-1.7.1-2.5.3-1 4.6-4.6 8.2-9.2 9.2-.1.5-.2 1-.2 1.5.5.4 1 .8 1.5 1.1 3.9-2.5 9-2.5 12.9 0 .7-.5 1.4-1 2-1.6l9-9c.4-.4.8-.9 1.1-1.3-.6-.1-1.2-.2-1.8-.2Z"/><path fill="#8d8800" d="M56.7 33.3c-4.6 1-8.2 4.6-9.2 9.2 4.6-1 8.2-4.6 9.2-9.2z"/><path fill="#44c899" d="M59.2 57c-.9 0-1.7-.1-2.5-.3.2.8.3 1.7.3 2.5V72c0 .6-.1 1.1-.1 1.7 4.7 3.7 11.5 3.4 15.9-1 4.3-4.3 4.7-11.1 1-15.9-.7.1-1.2.2-1.8.2Z"/><path fill="#4ebfbd" d="M46.2 47.3c.4 0 .9.1 1.3.2-.1-.4-.2-.9-.2-1.3-.2.2-.4.3-.6.5-.2.2-.3.4-.5.6z"/><path fill="#00a33f" d="M63.7 46.7c-.6-.6-1.3-1.2-2-1.6-3.9 2.5-9 2.5-12.9 0-.5.3-1 .7-1.5 1.1 0 .4.1.9.2 1.3 4.6 1 8.2 4.6 9.2 9.2.8.2 1.7.3 2.5.3H72c.6 0 1.1-.1 1.7-.1-.3-.4-.6-.8-1-1.1z"/><path fill="#008d08" d="M48.8 45.1c3.9 2.5 9 2.5 12.9 0-4-2.5-9-2.5-12.9 0z"/><path fill="#859ed5" d="M44 47.3c.4.5.8 1 1.1 1.5.3-.5.7-1 1.1-1.5-.4 0-.8-.1-1.2-.1-.3 0-.7.1-1 .1z"/><path fill="#6eacdf" d="M46.7 63.7c-.6-.6-1.2-1.3-1.6-2-.5.7-1 1.4-1.6 2l-9 9c-.4.4-.9.8-1.3 1.1C34 79.6 39 84 45 84c6.1 0 11-4.5 11.9-10.3-.4-.3-.8-.6-1.1-1z"/><path fill="#1d7b97" d="M57 59.2c0-.9-.1-1.7-.3-2.5-4.6-1-8.2-4.6-9.2-9.2-.4-.1-.9-.2-1.3-.2-.4.5-.8 1-1.1 1.5 2.5 3.9 2.5 9 0 12.9.5.7 1 1.4 1.6 2l9 9c.4.4.7.7 1.1 1 .1-.6.1-1.1.1-1.7V59.2Z"/><path fill="#00683a" d="M56.7 56.7c-1-4.6-4.6-8.2-9.2-9.2 1 4.6 4.6 8.2 9.2 9.2z"/><path fill="#be85c1" d="M42.7 46c0 .5-.1 1-.2 1.5.5-.1 1-.2 1.5-.2-.2-.2-.3-.4-.5-.6-.3-.2-.5-.4-.8-.7Z"/><path fill="#ab86c4" d="M33 59.2c0-.9.1-1.7.3-2.5-.8.2-1.7.3-2.5.3H18c-.5 0-1 0-1.5-.1-3.7 4.7-3.3 11.5 1 15.8 4.3 4.3 11 4.6 15.7 1.1-.1-.6-.2-1.2-.2-1.8Z"/><path fill="#5d53a6" d="M43.5 63.7c.6-.6 1.2-1.3 1.6-2-2.5-3.9-2.5-9 0-12.9-.3-.5-.7-1-1.1-1.5-.5 0-1 .1-1.5.2-1 4.6-4.6 8.2-9.2 9.2-.2.8-.3 1.7-.3 2.5V72c0 .6.1 1.2.2 1.8.5-.3.9-.7 1.3-1.1z"/><path fill="#243f76" d="M45.1 61.7c2.5-3.9 2.5-9 0-12.9-2.5 3.9-2.5 8.9 0 12.9z"/><path fill="#f1648a" d="M42.7 44.2c-.4.3-.8.7-1.3.9.4.3.9.6 1.3.9 0-.3.1-.7.1-1 0-.3-.1-.6-.1-.8z"/><path fill="#e275a8" d="M26.5 46.7c.6-.6 1.3-1.2 2-1.6-.7-.5-1.4-1-2-1.6l-9-9c-.4-.4-.8-.9-1.1-1.3C10.5 33.9 6 38.9 6 45c0 6.1 4.6 11.2 10.5 11.9.3-.4.6-.8 1-1.1z"/><path fill="#e40017" d="M26.5 43.5c.6.6 1.3 1.2 2 1.6 3.9-2.5 9-2.5 12.9 0 .4-.3.9-.6 1.3-.9 0-.6-.1-1.1-.2-1.7-4.6-1-8.2-4.6-9.2-9.2-.8-.2-1.7-.3-2.5-.3H18c-.6 0-1.1.1-1.6.1.3.5.7.9 1.1 1.3z"/><path fill="#e60000" d="M33.3 33.3c1 4.6 4.6 8.2 9.2 9.2-1-4.6-4.6-8.2-9.2-9.2z"/><path fill="#9f3174" d="M30.8 57c.9 0 1.7-.1 2.5-.3 1-4.6 4.6-8.2 9.2-9.2.1-.5.2-1 .2-1.5-.4-.3-.8-.7-1.3-.9-3.9 2.5-9 2.5-12.9 0-.7.5-1.4 1-2 1.6l-9 9c-.4.4-.7.7-1 1.1.5.2 1 .2 1.5.2z"/><path fill="#9f0017" d="M28.5 45.1c3.9 2.5 9 2.5 12.9 0-3.9-2.5-8.9-2.5-12.9 0z"/><path fill="#561e5d" d="M33.3 56.7c4.6-1 8.2-4.6 9.2-9.2-4.6 1-8.2 4.6-9.2 9.2z"/></svg>